<svg width="754" height="676" viewBox="0 0 754 676" fill="none" xmlns="http://www.w3.org/2000/svg">
<g id="Frame" clip-path="url(#clip0_51_21)">
<g id="bkgd">
<path id="Vector" d="M492.51 491.24L208.89 568.7L0 361.82L74.72 77.47L358.34 0L567.23 206.89L492.51 491.24Z" fill="url(#paint0_linear_51_21)"/>
<path id="Vector_2" d="M732.606 591.709L647.605 615L585 552.794L607.394 467.294L692.395 444L755 506.209L732.606 591.709Z" fill="url(#paint1_linear_51_21)"/>
</g>
<g id="left-wheel">
<path id="Vector_3" d="M160.29 658.04L154.06 560.09L153.93 559.88L147.61 562.08L118.53 646.93L72.2401 614.14L145.91 560.73L145.98 560.52L146.4 560.37L151.15 556.92L73.9102 513.61L54.9901 534.41L57.9901 553.91L146.81 555.53V557.53L56.3302 555.91L52.9102 533.77L78.8102 505.31L117.56 460.11L118.25 461.98L126.45 452.98L156.91 458.44V457.23L158.91 457.29V458.8L204.27 466.92L161.98 551.53L155.81 556.04V557.04L253.61 522.96L242 614.17L159 561.3L156.06 559.68L205.06 638.56L160.29 658.04ZM156.29 563.7L162.14 655.04L202.19 637.66L156.29 563.7ZM75.7101 614.13L117.5 643.76L144.84 564.04L75.7101 614.13ZM158.06 558.46L160.15 559.63L240.5 610.83L251.3 525.96L158.06 558.46ZM150.96 551.26L153.47 555.26L153.91 554.94L156.91 460.41L127.17 455.09L119.01 464.09L150.96 551.26ZM75.5401 512.2L150.38 554.2L149.06 552.04L117.48 465.77L80.2901 506.64L75.5401 512.2ZM158.94 460.81L155.94 553.53L160.46 550.25L201.37 468.43L158.94 460.81Z" fill="#535461"/>
<path id="Vector_4" d="M269.98 531.04C265.971 513.22 257.852 496.584 246.27 482.46C241.96 477.192 237.206 472.304 232.06 467.85C212.332 450.816 187.507 440.815 161.481 439.415C135.454 438.016 109.7 445.298 88.2598 460.119C66.8196 474.939 50.9073 496.46 43.0203 521.302C35.1334 546.144 35.7182 572.901 44.683 597.375C53.6478 621.849 70.4852 642.653 92.5524 656.523C114.62 670.393 140.668 676.543 166.608 674.008C192.549 671.473 216.913 660.396 235.878 642.516C254.842 624.637 267.333 600.966 271.39 575.22C272.333 569.159 272.807 563.034 272.81 556.9C272.826 548.202 271.877 539.529 269.98 531.04V531.04ZM154.79 645.34C136.563 645.317 118.786 639.682 103.875 629.201C88.9632 618.719 77.6414 603.9 71.4486 586.758C65.2557 569.615 64.4922 550.982 69.262 533.39C74.0317 515.799 84.1032 500.103 98.1071 488.437C112.111 476.771 129.368 469.7 147.532 468.187C165.695 466.673 183.884 470.79 199.626 479.977C215.368 489.165 227.898 502.977 235.514 519.537C243.129 536.096 245.46 554.599 242.19 572.53C238.456 592.981 227.662 611.472 211.689 624.779C195.716 638.085 175.579 645.362 154.79 645.34V645.34Z" fill="#535461"/>
<path id="Vector_5" opacity="0.1" d="M156.4 569.31C163.475 569.31 169.21 563.575 169.21 556.5C169.21 549.425 163.475 543.69 156.4 543.69C149.325 543.69 143.59 549.425 143.59 556.5C143.59 563.575 149.325 569.31 156.4 569.31Z" fill="black"/>
<path id="Vector_6" d="M167.436 558.581C168.57 551.598 163.828 545.018 156.844 543.884C149.861 542.751 143.281 547.493 142.147 554.476C141.014 561.46 145.756 568.04 152.739 569.173C159.723 570.307 166.303 565.565 167.436 558.581Z" fill="#535461"/>
</g>
<g id="right-wheel">
<path id="Vector_7" d="M586.48 658.43L580.22 560.53L580.09 560.32L573.77 562.52L544.68 647.33L498.43 614.53L572.12 561.12L572.19 560.91L572.61 560.76L577.36 557.31L500.12 514.04L481.19 534.84L484.19 554.34L572.99 555.92V557.92L482.51 556.3L479.11 534.19L505 505.74L543.72 460.57L544.41 462.44L552.61 453.44L583.15 458.91V457.7L585.15 457.76V459.27L630.51 467.39L588.18 552.04L582.06 556.47V557.53L679.87 523.45L668.26 614.66L585.26 561.79L582.34 560.15L631.23 639.04L586.48 658.43ZM582.48 564.09L588.33 655.47L628.38 638.09L582.48 564.09ZM501.91 614.53L543.7 644.16L571.06 564.42L501.91 614.53ZM584.23 558.87L586.32 560.04L666.67 611.24L677.47 526.37L584.23 558.87ZM577.13 551.67L579.64 555.67L580.08 555.35L583.08 460.82L553.34 455.48L545.18 464.48L577.13 551.67ZM501.74 512.67L576.58 554.67L575.28 552.54L543.7 466.27L506.5 507.15L501.74 512.67ZM585.11 461.28L582.11 553.97L586.63 550.69L627.54 468.87L585.11 461.28Z" fill="#535461"/>
<path id="Vector_8" d="M581.39 439.65C570.776 439.637 560.21 441.063 549.98 443.89C544.702 445.341 539.536 447.169 534.52 449.36C507.79 460.947 486.307 482.037 474.227 508.548C462.147 535.059 460.329 565.109 469.125 592.883C477.92 620.658 496.704 644.183 521.842 658.909C546.98 673.634 576.687 678.513 605.215 672.602C633.742 666.69 659.064 650.409 676.281 626.907C693.498 603.405 701.387 574.352 698.422 545.37C695.456 516.388 681.847 489.535 660.228 470.006C638.608 450.478 610.514 439.662 581.38 439.65H581.39ZM580.99 645.74C560.699 645.749 541.015 638.813 525.212 626.084C509.409 613.356 498.439 595.603 494.124 575.775C489.809 555.948 492.41 535.241 501.495 517.097C510.579 498.953 525.6 484.464 544.06 476.04C548.751 473.889 553.623 472.159 558.62 470.87C570.827 467.713 583.567 467.191 595.992 469.337C608.417 471.484 620.242 476.25 630.683 483.32C641.124 490.39 649.94 499.601 656.546 510.341C663.152 521.081 667.396 533.104 668.997 545.611C670.597 558.118 669.518 570.822 665.829 582.88C662.141 594.937 655.929 606.072 647.605 615.543C639.281 625.014 629.037 632.605 617.553 637.812C606.069 643.018 593.609 645.721 581 645.74H580.99Z" fill="#535461"/>
<path id="Vector_9" opacity="0.1" d="M580.19 568.11C587.265 568.11 593 562.375 593 555.3C593 548.225 587.265 542.49 580.19 542.49C573.115 542.49 567.38 548.225 567.38 555.3C567.38 562.375 573.115 568.11 580.19 568.11Z" fill="black"/>
<path id="Vector_10" d="M580.99 569.71C588.064 569.71 593.8 563.975 593.8 556.9C593.8 549.825 588.064 544.09 580.99 544.09C573.915 544.09 568.18 549.825 568.18 556.9C568.18 563.975 573.915 569.71 580.99 569.71Z" fill="#535461"/>
</g>
<g id="man-bike">
<path id="Vector_11" d="M249.345 453.208L236 466.732L278.706 508.876L292.052 495.352L249.345 453.208Z" fill="#6C63FF"/>
<path id="Vector_12" opacity="0.1" d="M249.345 453.208L236 466.732L278.706 508.876L292.052 495.352L249.345 453.208Z" fill="black"/>
<path id="Vector_13" d="M259.54 433.04C259.54 433.04 284.33 419.96 293.91 411.54C299.679 406.506 305.88 401.988 312.44 398.04L343.54 379.04L408.54 374.04L411.54 385.04C411.54 385.04 416.54 401.04 366.54 415.04C316.54 429.04 291.54 451.04 291.54 451.04C291.54 451.04 259.54 462.04 259.54 433.04Z" fill="#DB8B8B"/>
<path id="Vector_14" opacity="0.1" d="M294.19 448.9C292.42 450.25 291.54 451.03 291.54 451.03C291.54 451.03 259.54 462.03 259.54 433.03C259.54 433.03 261.09 432.21 263.54 430.84C266.013 434.873 269.48 438.205 273.608 440.516C277.737 442.827 282.389 444.04 287.12 444.04H290.51L294.19 448.9Z" fill="black"/>
<path id="Vector_15" opacity="0.05" d="M410.6 390.59C407.82 396.48 398.23 406.16 366.54 415.03C325.93 426.4 301.81 443.03 294.19 448.9C292.42 450.25 291.54 451.03 291.54 451.03C291.54 451.03 259.54 462.03 259.54 433.03C259.54 433.03 261.09 432.21 263.54 430.84C270.97 426.77 286.7 417.84 293.88 411.49C299.648 406.445 305.848 401.918 312.41 397.96L343.51 379.04L355.06 378.14L408.51 374.04L411.51 385.04C411.51 385.04 412.21 387.18 410.6 390.59Z" fill="black"/>
<path id="Vector_16" d="M260.06 426.53L233.54 444.04L311.14 509.04C311.14 509.04 322.54 502.04 316.54 494.04C316.54 494.04 296.54 477.04 295.54 453.04L289.54 445.04H286.15C280.42 445.036 274.832 443.253 270.159 439.937C265.486 436.622 261.957 431.937 260.06 426.53Z" fill="#ABB1D1"/>
<path id="Vector_17" opacity="0.1" d="M410.6 390.59C394.6 382.86 355.54 382.03 355.54 382.03L355.12 378.14L408.54 374.04L411.54 385.04C411.54 385.04 412.21 387.18 410.6 390.59Z" fill="black"/>
<path id="Vector_18" d="M355.54 380.04C355.54 380.04 402.54 381.04 414.54 391.04L408.54 270.04H343.54L355.54 380.04Z" fill="#ABB1D1"/>
<path id="Vector_19" opacity="0.05" d="M355.54 379.53C355.54 379.53 402.54 380.53 414.54 390.53L408.54 269.53H343.54L355.54 379.53Z" fill="black"/>
<path id="Vector_20" d="M393.3 306.04C393.3 306.04 510.95 302.04 513.3 317.25C515.65 332.46 395.7 326.04 395.7 326.04C395.7 326.04 386.06 316.39 393.3 306.04Z" fill="#535461"/>
<path id="Vector_21" d="M298.06 366.82H277.25V547.7H298.06V366.82Z" fill="#6C63FF"/>
<path id="Vector_22" d="M296.5 351.82C293.581 351.59 290.676 351.199 287.8 350.65C276.52 348.49 248.08 343.96 240.43 351.65C230.83 361.25 234.03 378.06 259.64 380.46C285.25 382.86 329.27 376.46 338.08 366.85C338.06 366.81 322.15 353.79 296.5 351.82Z" fill="#535461"/>
<path id="Vector_23" d="M292.46 416.44L510.96 348.42L518.16 365.23L294.06 442.06L292.46 416.44Z" fill="#6C63FF"/>
<path id="Vector_24" d="M357.29 523.7L514.96 368.43L523.76 381.23L373.29 538.1L357.29 523.7Z" fill="#6C63FF"/>
<path id="Vector_25" d="M585.39 549.3L574.19 555.71L496.05 337.38L492.55 327.61L510.96 317.19L515.57 331.57L585.39 549.3Z" fill="#6C63FF"/>
<path id="Vector_26" d="M396.5 348.41L506.15 310.79C506.15 310.79 525.36 313.19 518.15 329.2L407.71 362.04C407.71 362.04 390.91 363.61 396.5 348.41Z" fill="#535461"/>
<path id="Vector_27" opacity="0.1" d="M272.85 556.9C272.847 563.034 272.372 569.159 271.43 575.22C261.83 574.53 251.91 573.53 242.19 572.53C244.349 560.639 244.081 548.434 241.4 536.65C250.87 534.65 260.54 532.74 269.98 531.01C271.894 539.507 272.856 548.19 272.85 556.9V556.9Z" fill="black"/>
<path id="Vector_28" opacity="0.1" d="M298.06 526.42V547.69H277.25V529.69C284.45 528.44 291.45 527.33 298.06 526.42Z" fill="black"/>
<path id="Vector_29" d="M163.6 556.53C163.6 556.53 331.68 512.53 345.28 529.32C358.88 546.11 373.28 568.53 330.91 576.53C288.54 584.53 160.43 562.92 160.43 562.92L163.6 556.53Z" fill="#6C63FF"/>
<path id="Vector_30" opacity="0.1" d="M246.27 482.41L224.91 501.96C221.13 497.102 216.853 492.651 212.15 488.68L232.06 467.85C237.204 472.289 241.958 477.16 246.27 482.41Z" fill="black"/>
<path id="Vector_31" d="M158 547.71L283.65 416.44L287.66 446.86L164.4 559.71L158 547.71Z" fill="#6C63FF"/>
<path id="Vector_32" opacity="0.1" d="M353.28 569.31C367.424 569.31 378.89 557.844 378.89 543.7C378.89 529.556 367.424 518.09 353.28 518.09C339.136 518.09 327.67 529.556 327.67 543.7C327.67 557.844 339.136 569.31 353.28 569.31Z" fill="black"/>
<path id="Vector_33" d="M354.89 569.31C369.034 569.31 380.5 557.844 380.5 543.7C380.5 529.556 369.034 518.09 354.89 518.09C340.746 518.09 329.28 529.556 329.28 543.7C329.28 557.844 340.746 569.31 354.89 569.31Z" fill="#535461"/>
<path id="Vector_34" d="M348.334 540.772L348.326 540.778C345.322 543.031 344.713 547.293 346.966 550.298L367.33 577.45C369.583 580.454 373.846 581.063 376.85 578.81L376.858 578.804C379.862 576.551 380.471 572.288 378.218 569.284L357.854 542.132C355.601 539.127 351.338 538.519 348.334 540.772Z" fill="#6C63FF"/>
<path id="Vector_35" d="M470.54 188.04L468.16 218.14C467.89 221.954 467.94 225.784 468.31 229.59C468.62 232.96 468.31 238.86 465.01 247.86C460.77 259.356 458.581 271.507 458.54 283.76V318.04L435.54 314.04C435.54 314.04 436.54 266.04 432.54 258.04C428.54 250.04 435.54 179.04 435.54 179.04L470.54 188.04Z" fill="#DB8B8B"/>
<path id="Vector_36" opacity="0.05" d="M469.36 202.95L468.16 218.14C467.888 221.951 467.942 225.778 468.32 229.58C468.63 232.95 468.32 238.85 465.02 247.86C460.78 259.356 458.591 271.507 458.55 283.76V318.04L435.55 314.04C435.55 314.04 436.55 266.04 432.55 258.04C429.72 252.37 432.4 215.1 434.21 193.83C434.96 185.08 435.55 179.04 435.55 179.04L470.55 188.04L469.36 202.95Z" fill="black"/>
<path id="Vector_37" d="M356.56 418.04L347.91 467.24C346.822 473.81 345.149 480.269 342.91 486.54C337.84 500.4 341.08 519.83 343.54 530.43C344.63 535.11 345.54 538.07 345.54 538.07L319.54 552.07L311.54 546.07V542.07L310.54 453.07C304.54 439.07 306.54 418.07 310.54 410.07C311.68 407.442 312.479 404.68 312.92 401.85C314.92 391.13 315.54 376.07 315.54 376.07C315.54 376.07 331.54 349.07 350.54 367.07C357.54 373.7 360.2 382.37 360.76 390.67C361.74 404.87 356.56 418.04 356.56 418.04Z" fill="#DB8B8B"/>
<path id="Vector_38" opacity="0.1" d="M360.76 390.63C346.89 398.87 322.76 401.2 312.92 401.81C314.92 391.09 315.54 376.03 315.54 376.03C315.54 376.03 331.54 349.03 350.54 367.03C357.54 373.66 360.2 382.33 360.76 390.63Z" fill="black"/>
<path id="Vector_39" d="M394.54 366.04C383.906 371.703 373.857 378.402 364.54 386.04C348.54 399.04 308.54 400.04 308.54 400.04V385.04C309.54 367.04 292.54 347.04 269.54 291.04C254.85 255.28 258.92 235.04 263.78 225.04C266.54 219.39 269.54 217.04 269.54 217.04L394.54 241.04L399.01 254.44L408.54 283.04C408.54 283.04 373.54 285.04 367.54 288.04C361.54 291.04 365.54 318.04 365.54 318.04C359.54 346.04 394.54 366.04 394.54 366.04Z" fill="#ABB1D1"/>
<path id="Vector_40" d="M484.06 148.98C481.45 169.33 480.58 194.98 480.58 194.98C457.58 212.98 439.58 189.98 439.58 189.98C417.86 195.81 407.65 214.82 402.84 231.41C400.261 240.383 398.829 249.647 398.58 258.98C398.58 258.98 392.5 263.98 381.3 264.98C370.71 265.87 355.53 263.11 336.58 248.98C297.58 219.98 262.58 227.98 262.58 227.98C262.58 227.98 269.58 187.98 285.58 175.98C301.58 163.98 313.58 148.98 333.58 102.98C353.58 56.98 394.58 67.98 394.58 67.98C394.58 67.98 396.58 58.98 433.58 67.98C442.592 70.342 450.934 74.761 457.95 80.89C477.7 97.53 487.3 123.34 484.06 148.98Z" fill="#FFFDB6"/>
<path id="Vector_41" d="M446.91 90.53C446.86 91.86 446.75 93.34 446.57 94.99C444.57 112.99 442.57 110.99 420.57 114.99C406.89 117.48 399.78 106.04 396.36 97.04C395.126 93.7991 394.192 90.4517 393.57 87.04L441.57 79.04C441.57 79.04 447.32 77.38 446.91 90.53Z" fill="#DB8B8B"/>
<path id="Vector_42" d="M332.54 159.04L354.54 212.04C354.54 212.04 356.54 228.04 366.54 237.04C366.54 237.04 381.54 253.04 383.54 262.04C385.54 271.04 413.54 295.04 413.54 295.04C413.54 295.04 439.54 319.04 441.54 328.04C441.54 328.04 465.54 335.04 462.54 349.04C462.54 349.04 480.54 331.04 462.54 314.04C444.54 297.04 420.54 262.04 420.54 262.04C420.54 262.04 406.54 225.04 393.54 214.04L389.54 203.04C389.54 203.04 395.54 171.04 375.54 156.04C355.54 141.04 332.54 159.04 332.54 159.04Z" fill="#DB8B8B"/>
<path id="Vector_43" opacity="0.1" d="M375.54 117.04L389.54 172.04C389.54 172.04 346.54 179.04 337.54 172.04C328.54 165.04 311.54 163.04 311.54 163.04C311.54 163.04 329.54 111.04 339.54 105.04C349.54 99.04 375.54 117.04 375.54 117.04Z" fill="black"/>
<path id="Vector_44" d="M375.54 115.04L389.54 170.04C389.54 170.04 346.54 177.04 337.54 170.04C328.54 163.04 311.54 161.04 311.54 161.04C311.54 161.04 329.54 109.04 339.54 103.04C349.54 97.04 375.54 115.04 375.54 115.04Z" fill="#FFFDB6"/>
<path id="Vector_45" d="M453.54 68.04C453.54 77.3226 449.853 86.225 443.289 92.7887C436.725 99.3525 427.823 103.04 418.54 103.04C409.257 103.04 400.355 99.3525 393.791 92.7887C387.228 86.225 383.54 77.3226 383.54 68.04V66.3C383.771 57.0174 387.68 48.2067 394.406 41.8061C397.737 38.6368 401.66 36.1546 405.95 34.5013C410.24 32.8479 414.814 32.0557 419.41 32.17C424.006 32.2842 428.535 33.3027 432.738 35.1671C436.94 37.0316 440.735 39.7056 443.904 43.0364C447.073 46.3673 449.555 50.2897 451.209 54.5799C452.862 58.87 453.654 63.4437 453.54 68.04Z" fill="#DB8B8B"/>
<path id="Vector_46" opacity="0.1" d="M453.54 68.04C453.543 71.2657 453.098 74.4762 452.22 77.58C449.515 78.1697 446.693 77.9113 444.14 76.84C440.4 75.37 437.14 72.84 433.6 71.02C423.49 65.9 411.46 66.91 400.26 68.6C394.7 69.44 388.39 70.22 384.02 66.68C383.87 66.56 383.73 66.43 383.59 66.3C383.821 57.0174 387.73 48.2067 394.457 41.8061C401.183 35.4055 410.178 31.9393 419.46 32.17C428.743 32.4007 437.553 36.3095 443.954 43.0365C450.355 49.7634 453.821 58.7574 453.59 68.04H453.54Z" fill="black"/>
<path id="Vector_47" opacity="0.05" d="M290.06 175.53C290.06 175.53 316.06 182.53 324.06 200.53C332.06 218.53 353.7 221.82 353.7 221.82" fill="black"/>
<path id="Vector_48" d="M388.04 571.53H328.04V590.53H388.04V571.53Z" fill="#6C63FF"/>
<path id="Vector_49" d="M337.06 536.27C342.43 533.27 347.14 530.27 347.55 529.03C347.55 529.03 361.1 543.33 373.17 547.77C377.228 549.27 381.114 551.201 384.76 553.53C389.54 556.53 396.36 560.06 402.55 560.06C402.55 560.06 416.55 572.06 389.55 574.06C362.55 576.06 299.55 569.06 299.55 569.06L303.55 544.06C315.237 544.748 326.874 542.042 337.06 536.27V536.27Z" fill="#ABB1D1"/>
</g>
<path id="hat" d="M358.22 46.3799C360.35 53.0599 370.58 53.27 375.83 58.19C378.56 60.75 379.83 64.5299 382.83 66.8099C387 69.9899 393.02 69.2899 398.33 68.5299C409.02 67.0099 420.5 66.0999 430.14 70.7099C433.56 72.3399 436.63 74.62 440.2 75.95C443.77 77.28 448.2 77.4399 451.1 75.0799C453.42 73.1899 454.27 70.0799 456.37 67.9999C458 66.3599 460.27 65.44 462.13 64C466.21 60.92 467.97 55.8999 469.13 51.0999C471.53 41.2199 472.22 30.57 468.13 21.2C464.04 11.83 454.2 4.19995 443.46 4.68995C440.17 4.83995 436.96 5.68995 433.68 6.04995C425.13 6.91995 416.68 4.04995 408.1 3.55995C405.611 3.25801 403.087 3.60242 400.77 4.55995C399.023 5.53024 397.516 6.88005 396.36 8.50995C392.425 13.6698 389.735 19.6692 388.5 26.0399C387.5 30.8299 387.45 35.17 381.58 35.91C374.91 36.74 353.71 32.2499 358.22 46.3799Z" fill="#472727"/>
</g>
<defs>
<linearGradient id="paint0_linear_51_21" x1="0" y1="284.35" x2="1244.24" y2="284.35" gradientUnits="userSpaceOnUse">
<stop stop-color="white"/>
<stop offset="1" stop-color="#005B6A"/>
</linearGradient>
<linearGradient id="paint1_linear_51_21" x1="585" y1="529.5" x2="957.901" y2="529.5" gradientUnits="userSpaceOnUse">
<stop stop-color="white"/>
<stop offset="1" stop-color="#005B6A"/>
</linearGradient>
<clipPath id="clip0_51_21">
<rect width="753.33" height="675.08" fill="white"/>
</clipPath>
</defs>
</svg>
